<svg xmlns="http://www.w3.org/2000/svg" width="113.453" height="76.987" viewBox="0 0 113.453 76.987">
  <g id="pawswhitelogo" transform="translate(-64.359 -83.895)">
    <path id="Path_7" data-name="Path 7" d="M80.481,118.724c.033.44.066.87.09,1.183-.662.279-1.334.572-2.015.837a5.168,5.168,0,0,1-1.107.317c-1.471.194-1.9.87-1.4,2.28a3.479,3.479,0,0,0,.937,1.509,3.229,3.229,0,0,1,.606,3.789,41.064,41.064,0,0,0-1.684,3.87,7.154,7.154,0,0,0,.762,6.708,3.067,3.067,0,0,1,.251.937c.459,1.712.941,3.425,1.377,5.142a7.583,7.583,0,0,1,.289,1.944,4.1,4.1,0,0,1-.4,1.594,6.159,6.159,0,0,0-.454,4.172c.08.326.019.464-.237.591a6.894,6.894,0,0,0-.87.454c-.4.279-.766.61-1.154.908-.123.095-.274.255-.4.246-1.348-.123-2.692-.3-4.04-.412a1.623,1.623,0,0,1-1.353-1.027.916.916,0,0,0-.539-.407,7,7,0,0,1-3.4-1.779,4.047,4.047,0,0,1-1.23-2.63c-.1-1.84-.2-3.69-.128-5.53a36.035,36.035,0,0,1,2.436-11.859,38.189,38.189,0,0,1,5.525-9.646,45.318,45.318,0,0,1,7.749-7.777c1.41-1.107,2.923-2.086,4.376-3.136a8.981,8.981,0,0,0,3.151-4.428,21.741,21.741,0,0,0,1.031-9.05,22.18,22.18,0,0,1,.076-2.441,5.859,5.859,0,0,0-.941-3.411,10.672,10.672,0,0,1-.776-2.077c-.582.17-1.216.369-1.859.539a2.365,2.365,0,0,1-.634.062,1.31,1.31,0,0,1-1.3-1.116,1.334,1.334,0,0,1,.9-1.225c.889-.322,1.807-.568,2.677-.941a5.48,5.48,0,0,1,3.647-.624c1.684.412,3.193-.563,4.783-.937a15.8,15.8,0,0,1,3.179-.591,9.75,9.75,0,0,1,2.588.572,21.687,21.687,0,0,0,2.559.714,8.286,8.286,0,0,0,2.465-.066A23.638,23.638,0,0,0,112.072,84a1.514,1.514,0,0,1,1.968,1.433,7.282,7.282,0,0,1-2.157,6.188,12.984,12.984,0,0,1-3.742,2.309,10.646,10.646,0,0,0-3.756,2.365,3.437,3.437,0,0,0-1,3.226c.293,1.377.568,2.763.8,4.153a36.478,36.478,0,0,1,.572,7.99,6.08,6.08,0,0,1-.293,1.646,3.523,3.523,0,0,0,.331,3.065,8.789,8.789,0,0,1,.9,2,7.768,7.768,0,0,1-.17,3.8,47.09,47.09,0,0,1-1.49,5.047,12.844,12.844,0,0,1-1.093,1.906,1.813,1.813,0,0,0-.307.833q.142,3.165.355,6.329c.109,1.6.218,3.207.421,4.8.194,1.528.511,3.042.771,4.56.08.473.322.553.818.539a3.768,3.768,0,0,1,2.9.7c.511.473.53,1.495-.038,1.788a8.132,8.132,0,0,1-2.148.785,3.438,3.438,0,0,1-3.089-1.154c-.246-.237-.516-.454-.823-.724a1.514,1.514,0,0,0-.137.364,29.869,29.869,0,0,0,.525,7.048,3.242,3.242,0,0,0,1.452,1.873c.511.383,1.027.757,1.5,1.173a2.3,2.3,0,0,1,.53.757c.516,1.112.043,2.01-1.178,2.081a6.467,6.467,0,0,1-2.167-.274c-.828-.246-1.585-.714-2.4-1.008a2.267,2.267,0,0,1-1.589-2.266,32.337,32.337,0,0,0-1.2-6.954,7.488,7.488,0,0,1-.052-1.566c0-1.7.028-3.406,0-5.1a12.365,12.365,0,0,0-1.15-4.877,8.987,8.987,0,0,0-3.742-4.172c-1.49-.861-3.051-1.589-4.565-2.408-.88-.478-.993-.989-.861-1.982.284-2.081,1.1-4.1.856-6.244a8.706,8.706,0,0,0-.388-1.566c-.166-.544-.374-1.074-.572-1.608a9.342,9.342,0,0,0-.483-1.239,1.033,1.033,0,0,0-1.623-.374c-.364.241-.724.686-1.079.681s-.71-.468-1.088-.686A2.39,2.39,0,0,0,80.481,118.724Z" fill="#fff"/>
    <path id="Path_8" data-name="Path 8" d="M242.846,129.881c-1.632.052-1.31.274-1.859-1.225-1.154-3.155-2.327-6.306-3.491-9.461-.175-.478-.36-.956-.539-1.438H236.8a4.481,4.481,0,0,0-.2.43c-1.268,3.751-2.55,7.493-3.775,11.259-.232.7-.714.4-1.121.473-.383.066-.535-.118-.643-.478-1.192-3.978-2.384-7.957-3.609-11.921-.383-1.235-.823-2.455-1.3-3.657a1.976,1.976,0,0,0-1.443-1.164c-.752-.194-.752-.189-.61-1.06h7.961c.151.88.151.88-.71,1.036-.956.175-1.315.61-1.064,1.49.932,3.245,1.906,6.481,2.867,9.721a2.422,2.422,0,0,0,.166.312c.142-.35.26-.6.345-.861q1.625-5.017,3.24-10.038a4.733,4.733,0,0,0,.241-.776c.085-.572.388-.729.946-.71a.75.75,0,0,1,.79.582q1.6,4.385,3.236,8.756c.383,1.027.776,2.048,1.164,3.075h.166c.237-.738.492-1.471.7-2.214.653-2.384,1.31-4.768,1.921-7.162.331-1.306.227-1.977-1.4-2.186-.686-.09-.733-.17-.6-1.017h6.206c.166.87.166.87-.591,1.055a2.671,2.671,0,0,0-1.859,1.911c-.743,2.077-1.448,4.163-2.129,6.258C244.724,123.854,243.8,126.863,242.846,129.881Z" transform="translate(-84.136 -14.62)" fill="#fff"/>
    <path id="Path_9" data-name="Path 9" d="M178.248,129.845h-7.971c-.265,0-.553.071-.568-.369-.014-.412.189-.549.544-.587a7.661,7.661,0,0,0,.8-.118,1.157,1.157,0,0,0,.937-1.06,10.494,10.494,0,0,0,.109-1.334q.014-5.485,0-10.97a9.548,9.548,0,0,0-.1-1.273,1.319,1.319,0,0,0-1.263-1.287c-.809-.118-.809-.118-.729-1.031.156-.009.322-.033.492-.033,2.356,0,4.712-.066,7.063.024a15.575,15.575,0,0,1,3.709.572,4.41,4.41,0,0,1,3.122,4.234,5.422,5.422,0,0,1-1.206,4.011,6.377,6.377,0,0,1-3.264,1.892,5.866,5.866,0,0,1-3.638-.047,3.342,3.342,0,0,0-.53-.076v1.263c0,1.088,0,2.181,0,3.269.009,1.419.435,1.864,1.859,1.954C178.361,128.932,178.423,129.017,178.248,129.845Zm-2.493-12.5h0c0,1.187-.009,2.37.014,3.557a.613.613,0,0,0,.27.464,3.152,3.152,0,0,0,3.723-1.187,6.039,6.039,0,0,0,.7-4.158,3.325,3.325,0,0,0-3.6-3.179.994.994,0,0,0-1.093,1.121Q175.752,115.66,175.755,117.347Z" transform="translate(-55.513 -14.684)" fill="#fff"/>
    <path id="Path_10" data-name="Path 10" d="M213.345,128.67v.9h-7.857v-.847c.279-.066.582-.118.87-.208a.8.8,0,0,0,.6-1.159c-.36-1.1-.719-2.2-1.121-3.288a.719.719,0,0,0-.544-.374c-1.537-.028-3.075-.024-4.612,0a.6.6,0,0,0-.473.284q-.532,1.5-.989,3.023c-.279.937-.208,1.282,1.05,1.6.2.052.421.061.667.1v.875h-6.1v-.9a2.8,2.8,0,0,0,2.819-2.162c.842-2.2,1.746-4.371,2.621-6.557,1.079-2.692,2.167-5.379,3.231-8.07.246-.62.828-.449,1.273-.568.1-.028.388.336.473.568,1.519,4.134,3.013,8.278,4.527,12.418.3.814.643,1.613.97,2.417A2.675,2.675,0,0,0,213.345,128.67Zm-8.165-6.4c-.7-2.053-1.381-4.026-2.063-6-.066,0-.132.009-.2.019-.7,1.973-1.414,3.945-2.143,5.979Z" transform="translate(-68.751 -14.45)" fill="#fff"/>
    <path id="Path_11" data-name="Path 11" d="M289.1,115.57a21.062,21.062,0,0,0-1.85-2.8,2.912,2.912,0,0,0-4.66.5,2.81,2.81,0,0,0,.757,3.543c1.121.752,2.318,1.391,3.491,2.063a8.932,8.932,0,0,1,3.013,2.493,5.124,5.124,0,0,1-.132,5.587,6.785,6.785,0,0,1-5.729,2.649,10.317,10.317,0,0,1-4.286-.875.732.732,0,0,1-.364-.454c-.18-.847-.322-1.708-.473-2.564a8.4,8.4,0,0,1-.156-1.027c-.052-.809-.043-.814.714-.97a30.077,30.077,0,0,0,1.618,2.805,4.089,4.089,0,0,0,3.7,2.006,2.791,2.791,0,0,0,2.484-2.436c.185-1.817-.861-2.834-2.228-3.685-1.343-.837-2.744-1.594-4.021-2.517a4.875,4.875,0,0,1-.185-7.55,6.624,6.624,0,0,1,3.463-1.476,11.351,11.351,0,0,1,4.3.388.88.88,0,0,1,.818.932,22.9,22.9,0,0,0,.326,2.469C289.841,115.461,289.77,115.565,289.1,115.57Z" transform="translate(-112.942 -14.169)" fill="#fff"/>
    <path id="Path_12" data-name="Path 12" d="M169.94,206.822a11.462,11.462,0,0,1,1.414.019c.142.019.317.255.369.421.478,1.5.932,3.013,1.448,4.7a6.816,6.816,0,0,0,.322-.7c.44-1.315.908-2.621,1.3-3.95.18-.615.61-.449,1.012-.5s.516.17.62.506c.421,1.343.88,2.677,1.329,4.011a7.151,7.151,0,0,0,.3.653c.4-1.287.743-2.4,1.083-3.52.038-.128.076-.26.114-.388.412-1.372.412-1.372,1.944-1.211-.114.388-.208.771-.331,1.14-.662,1.958-1.358,3.907-1.992,5.875a.608.608,0,0,1-.747.492c-.407-.024-.8.095-.989-.511-.412-1.367-.918-2.706-1.391-4.059a2.756,2.756,0,0,0-.189-.35c-.539,1.542-1.064,3.013-1.566,4.489-.1.3-.237.483-.568.421-.378-.066-.87.227-1.069-.4-.468-1.452-.965-2.9-1.452-4.343C170.593,208.724,170.281,207.821,169.94,206.822Z" transform="translate(-55.635 -64.758)" fill="#fff"/>
    <path id="Path_13" data-name="Path 13" d="M239.479,184.07c.549,0,1.031-.024,1.509.014.123.009.265.18.35.312.6.946,1.192,1.9,1.854,2.957.421-.672.8-1.277,1.187-1.887.061-.1.123-.2.18-.3.7-1.211.757-1.239,2.271-1.041.014.213.038.435.038.662,0,2,0,4,0,6.008,0,.823,0,.828-.823.818-.189,0-.378-.019-.624-.028V186.8c-.057-.028-.114-.057-.17-.08-.681,1.017-1.367,2.029-2.086,3.1-.7-1.06-1.358-2.062-2.02-3.065-.043,0-.085.014-.132.019-.014.2-.043.393-.043.591,0,1.244-.019,2.488,0,3.732.009.412-.132.568-.535.525a4.754,4.754,0,0,1-.639-.019c-.128-.033-.307-.2-.307-.307C239.475,188.909,239.479,186.521,239.479,184.07Z" transform="translate(-92.279 -52.768)" fill="#fff"/>
    <path id="Path_14" data-name="Path 14" d="M198.529,191.512c-.09.071-.1.095-.118.095-1.377.2-1.4.18-1.4-1.187v-6.268c.766-.076,1.414-.222,1.944.582.809,1.225,1.755,2.361,2.644,3.529a.9.9,0,0,0,.5.345v-4.48h1.495c.009.222.028.426.028.634,0,2.063.009,4.12-.009,6.183,0,.232-.151.658-.227.653-.421-.009-1.012.028-1.225-.222-1.112-1.334-2.129-2.748-3.169-4.144a2.438,2.438,0,0,1-.213-.464c-.085.061-.17.118-.251.18C198.529,188.494,198.529,190.031,198.529,191.512Z" transform="translate(-69.9 -52.797)" fill="#fff"/>
    <path id="Path_15" data-name="Path 15" d="M279.117,214.39a1.882,1.882,0,0,1-2.573-1.164c-.043-.085-.128-.151-.161-.241a1.4,1.4,0,0,0-1.94-.847v2.327h-1.6v-7.422c1.178,0,2.351-.019,3.524.009a3.636,3.636,0,0,1,1.192.213,2.418,2.418,0,0,1,.459,4.163c-.2.114-.388.251-.62.407Q278.268,213.119,279.117,214.39Zm-4.669-3.661c.743-.043,1.424-.038,2.091-.128.591-.076.856-.5.833-1.178a.92.92,0,0,0-.875-.97c-.672-.043-1.348-.009-2.048-.009Z" transform="translate(-109.858 -64.889)" fill="#fff"/>
    <path id="Path_16" data-name="Path 16" d="M190.466,233.348a3.922,3.922,0,1,1,3.9,3.846A3.676,3.676,0,0,1,190.466,233.348Zm1.6-.024a2.316,2.316,0,1,0,4.626.1,2.441,2.441,0,0,0-2.342-2.517A2.329,2.329,0,0,0,192.065,233.324Z" transform="translate(-66.45 -76.742)" fill="#fff"/>
    <path id="Path_17" data-name="Path 17" d="M233.353,157.574a1.56,1.56,0,0,1-.35.293,1.033,1.033,0,0,1-.4.014H170.441a1.3,1.3,0,0,1-.407-.014c-.1-.033-.185-.142-.274-.218.1-.085.184-.208.3-.246a1.675,1.675,0,0,1,.464-.014h62.68A1.929,1.929,0,0,0,233.353,157.574Z" transform="translate(-55.541 -38.723)" fill="#fff"/>
    <path id="Path_18" data-name="Path 18" d="M201.865,212.961c1.173,0,2.3.038,3.425-.014.658-.033.605.331.61.762s.024.766-.62.747c-1.651-.052-3.3-.019-5-.019V206.93h5.44v1.424h-3.86V210h2.687c.809,0,.809,0,.795.833,0,.132-.014.265-.028.478H201.86C201.865,211.883,201.865,212.38,201.865,212.961Z" transform="translate(-71.623 -64.833)" fill="#fff"/>
    <path id="Path_19" data-name="Path 19" d="M297.771,214.41c-1.793,0-3.52.009-5.246-.014a.517.517,0,0,1-.364-.36q-.035-3.385,0-6.765c0-.132.222-.383.345-.383,1.689-.024,3.378-.019,5.123-.019v1.457h-3.86v1.613h3.415v1.329h-3.415v1.656h4.007C297.771,213.445,297.771,213.885,297.771,214.41Z" transform="translate(-120.03 -64.801)" fill="#fff"/>
    <path id="Path_20" data-name="Path 20" d="M255.84,229.765v1.377h-3.86v1.641h3.449v1.353h-3.439v1.642c1.074,0,2.133-.009,3.2,0,.26,0,.71.028.738.137a3.559,3.559,0,0,1,.033,1.145c0,.062-.208.156-.322.156-1.731.009-3.458,0-5.237,0V229.76C252.183,229.765,253.976,229.765,255.84,229.765Z" transform="translate(-98.034 -76.863)" fill="#fff"/>
    <path id="Path_21" data-name="Path 21" d="M273.662,191.57c-.161.033-.218.052-.274.057-1.3.052-1.32.061-1.764-1.15a.762.762,0,0,0-.885-.6c-.719.043-1.438.024-2.157,0-.331-.009-.563.062-.648.412a1.912,1.912,0,0,1-.123.265c-.487,1.22-.506,1.23-1.93.993.279-.691.544-1.362.828-2.029.719-1.689,1.466-3.368,2.167-5.066a.533.533,0,0,1,.662-.383c.383.066.861-.227,1.107.36.728,1.769,1.481,3.524,2.228,5.284C273.122,190.316,273.378,190.912,273.662,191.57Zm-3.827-5.4c-.057-.028-.114-.052-.17-.08-.322.776-.643,1.556-.993,2.394h2.148C270.473,187.672,270.152,186.92,269.835,186.168Z" transform="translate(-106.191 -52.779)" fill="#fff"/>
    <path id="Path_22" data-name="Path 22" d="M169.9,191.536c.587-1.386,1.145-2.72,1.708-4.049.43-1.012.847-2.034,1.3-3.032a.808.808,0,0,1,.487-.369,2.238,2.238,0,0,1,.814,0,.566.566,0,0,1,.4.237q1.518,3.541,3.009,7.1c.014.033,0,.076-.014.2a10.883,10.883,0,0,1-1.3-.019.569.569,0,0,1-.355-.378c-.208-1.211-.956-1.523-2.067-1.343a4.168,4.168,0,0,1-1.164,0,.676.676,0,0,0-.833.587,1.082,1.082,0,0,1-.047.109C171.381,191.754,171.3,191.8,169.9,191.536Zm3.945-5.445c-.057,0-.109-.014-.166-.019-.317.785-.634,1.571-.974,2.4h2.115C174.484,187.638,174.167,186.867,173.845,186.091Z" transform="translate(-55.614 -52.774)" fill="#fff"/>
    <path id="Path_23" data-name="Path 23" d="M258.495,214.309c-.057.009-.109.028-.166.033-1.344.052-1.358.057-1.831-1.206a.706.706,0,0,0-.809-.544c-.738.038-1.476.033-2.214,0a.573.573,0,0,0-.653.416c-.019.057-.043.109-.061.161-.5,1.3-.5,1.3-1.992,1.121.3-.743.591-1.471.9-2.19.7-1.651,1.414-3.3,2.152-4.934a.727.727,0,0,1,.544-.36c.393,0,.922-.251,1.15.279,1.012,2.361,2,4.731,2.985,7.1A1.111,1.111,0,0,1,258.495,214.309Zm-2.748-3.1c-.369-.87-.7-1.637-1.022-2.4l-.2-.014c-.317.781-.639,1.556-.989,2.417Z" transform="translate(-98.228 -64.737)" fill="#fff"/>
    <path id="Path_24" data-name="Path 24" d="M175.631,230.456c-.279.388-.52.733-.7.993-.762-.189-1.448-.393-2.152-.52a.7.7,0,0,0-.875.572c-.095.487.189.752.639.885.667.2,1.339.378,1.987.624a1.9,1.9,0,0,1,1.358,1.883,2.01,2.01,0,0,1-1.358,2.029,4.513,4.513,0,0,1-4.187-.681.48.48,0,0,1-.057-.464,7.09,7.09,0,0,1,.634-.8,5.644,5.644,0,0,0,1.017.53,4.854,4.854,0,0,0,1.571.255,1.152,1.152,0,0,0,.781-.615c.161-.388-.151-.681-.544-.814-.624-.208-1.254-.388-1.873-.605-1.15-.4-1.571-.993-1.528-2.025a2.116,2.116,0,0,1,1.892-2.1A4.217,4.217,0,0,1,175.631,230.456Z" transform="translate(-55.797 -76.745)" fill="#fff"/>
    <path id="Path_25" data-name="Path 25" d="M241.137,211.506h-3.472v2.914H236.09v-7.46h5.6v1.4h-3.969v1.76h3.415Z" transform="translate(-90.493 -64.849)" fill="#fff"/>
    <path id="Path_26" data-name="Path 26" d="M220.7,234.948c.345.3.658.582.96.851a3.855,3.855,0,1,1-5.889-4.977,4.034,4.034,0,0,1,5.795-.227c-.071.1-.142.208-.218.312-.563.757-.572.771-1.377.331a2.218,2.218,0,0,0-2.564.1,2.434,2.434,0,0,0-.856,2.507,2.2,2.2,0,0,0,1.694,1.864,2.333,2.333,0,0,0,1.883-.383C220.329,235.218,220.513,235.076,220.7,234.948Z" transform="translate(-79.306 -76.715)" fill="#fff"/>
    <path id="Path_27" data-name="Path 27" d="M275.479,229.658v1.424H273.26v5.956a.965.965,0,0,1-.137.1c-1.471.227-1.5.2-1.5-1.244v-4.778c-.648,0-1.225-.019-1.8,0-.378.014-.539-.118-.5-.5a2.571,2.571,0,0,1,.019-.577c.057-.151.237-.364.364-.364C271.6,229.649,273.511,229.658,275.479,229.658Z" transform="translate(-107.998 -76.809)" fill="#fff"/>
    <path id="Path_28" data-name="Path 28" d="M288.65,229.636a12.075,12.075,0,0,1,1.457.019.825.825,0,0,1,.516.369c.435.686.828,1.4,1.249,2.091.114.189.26.364.426.591.568-.918,1.121-1.755,1.608-2.625a.761.761,0,0,1,.828-.449c.345.024.7,0,1.178,0-.468.738-.866,1.381-1.277,2.02-.449.7-.927,1.381-1.343,2.105a2.2,2.2,0,0,0-.27.979c-.038.771-.014,1.547-.014,2.37h-1.481c0-.818.019-1.627-.009-2.436a1.728,1.728,0,0,0-.237-.795c-.795-1.3-1.623-2.588-2.436-3.884C288.792,229.915,288.754,229.835,288.65,229.636Z" transform="translate(-118.189 -76.791)" fill="#fff"/>
    <path id="Path_29" data-name="Path 29" d="M293.1,184.14h1.518v6.027h3.647v1.462H293.1C293.1,189.121,293.1,186.633,293.1,184.14Z" transform="translate(-120.534 -52.824)" fill="#fff"/>
    <path id="Path_30" data-name="Path 30" d="M219.01,206.91h1.556v6.008h3.628v1.471H219.01Z" transform="translate(-81.493 -64.822)" fill="#fff"/>
    <path id="Path_31" data-name="Path 31" d="M237.959,229.73h1.476v7.408a.753.753,0,0,1-.166.066c-1.315.085-1.315.085-1.31-1.235v-6.24Z" transform="translate(-91.478 -76.847)" fill="#fff"/>
    <path id="Path_32" data-name="Path 32" d="M224.14,191.687V184.17h1.41c.014.222.038.445.038.667,0,2.02,0,4.035,0,6.055,0,.79,0,.79-.781.79C224.6,191.687,224.391,191.687,224.14,191.687Z" transform="translate(-84.196 -52.84)" fill="#fff"/>
    <path id="Path_33" data-name="Path 33" d="M226.652,168.671c0-.582-.024-1.168.014-1.75.009-.151.2-.421.307-.421a10.218,10.218,0,0,1,2.19.147,1.933,1.933,0,0,1,1.523,2.219,2,2,0,0,1-1.717,1.911,18.416,18.416,0,0,1-1.911.114c-.293.014-.421-.109-.412-.412C226.657,169.878,226.647,169.277,226.652,168.671Zm.941,1.438a1.923,1.923,0,0,0,2-.71,1.569,1.569,0,0,0-.085-1.589c-.516-.643-1.206-.568-1.921-.468C227.593,168.264,227.593,169.154,227.593,170.109Z" transform="translate(-85.516 -43.528)" fill="#fff"/>
    <path id="Path_34" data-name="Path 34" d="M277.623,168.141c0-.416.014-.818,0-1.22-.019-.35.114-.492.468-.487.322,0,.511.066.506.449-.014,1.183-.014,2.37,0,3.553,0,.341-.142.435-.459.426-.3-.009-.539-.019-.52-.426.024-.44,0-.885,0-1.41-.553,0-1.055-.028-1.547.019-.118.009-.3.26-.312.412-.043.435-.014.88-.014,1.358h-.885v-4.248c.747-.265.88-.184.885.544v1.031Z" transform="translate(-110.923 -43.49)" fill="#fff"/>
    <path id="Path_35" data-name="Path 35" d="M185.2,170.82h-.932v-1.75H182.4V170.8h-.918v-4.324h.885v1.675h1.887v-1.58c.814-.279.946-.194.946.568C185.2,168.336,185.2,169.543,185.2,170.82Z" transform="translate(-61.716 -43.487)" fill="#fff"/>
    <path id="Path_36" data-name="Path 36" d="M243.359,166.455v.809h-2.323v.941h2.058V169h-2.067v1.1h2.332v.762c-1.008,0-1.992.009-2.975-.019-.109,0-.3-.237-.3-.364q-.035-1.831,0-3.671a.49.49,0,0,1,.326-.345C241.377,166.441,242.347,166.455,243.359,166.455Z" transform="translate(-92.587 -43.503)" fill="#fff"/>
    <path id="Path_37" data-name="Path 37" d="M263.81,169.595c-.114,1.334-.114,1.334-.96,1.22v-2.758c0-1.6,0-1.627,1.608-1.58a2.86,2.86,0,0,1,1.31.36,1.263,1.263,0,0,1,.549,1.429,1.436,1.436,0,0,1-1.107,1.15C264.771,169.514,264.307,169.533,263.81,169.595Zm0-.87c.6.047,1.159.123,1.485-.393a.84.84,0,0,0-.057-.747c-.369-.535-.922-.27-1.424-.3C263.81,167.8,263.81,168.242,263.81,168.724Z" transform="translate(-104.594 -43.51)" fill="#fff"/>
    <path id="Path_38" data-name="Path 38" d="M170.66,169.585v1.145c-.818.274-.951.194-.956-.558,0-1.064.019-2.133,0-3.2-.009-.407.132-.568.535-.53a15.569,15.569,0,0,1,2.006.175,1.276,1.276,0,0,1,.941,1.471,1.472,1.472,0,0,1-1.126,1.315C171.63,169.486,171.19,169.519,170.66,169.585Zm.028-.885c.587.066,1.14.137,1.471-.374a.83.83,0,0,0-.047-.728c-.345-.577-.918-.279-1.429-.336C170.688,167.773,170.688,168.213,170.688,168.7Z" transform="translate(-55.508 -43.496)" fill="#fff"/>
    <path id="Path_39" data-name="Path 39" d="M214.006,169.816c-.5,1.15-.5,1.15-1.3.989.166-.4.322-.785.487-1.173.412-.956.814-1.916,1.249-2.862a.631.631,0,0,1,.478-.279c.2,0,.506.109.572.255.582,1.3,1.126,2.625,1.675,3.941a.407.407,0,0,1,0,.132c-.52.194-.913.076-1.05-.5-.109-.468-.388-.549-.809-.516C214.872,169.839,214.427,169.816,214.006,169.816Zm1.627-.781c-.213-.506-.4-.937-.582-1.372h-.2c-.18.435-.36.87-.563,1.372Z" transform="translate(-78.173 -43.523)" fill="#fff"/>
    <path id="Path_40" data-name="Path 40" d="M295.683,169.752c-.492,1.15-.492,1.15-1.263,1,.473-1.131.941-2.247,1.41-3.359a6.153,6.153,0,0,1,.345-.738c.189-.331.88-.36,1.027-.019.6,1.362,1.159,2.734,1.746,4.13-.568.17-.951.095-1.074-.52-.08-.407-.331-.539-.752-.5C296.639,169.785,296.151,169.752,295.683,169.752Zm1.651-.771c-.218-.53-.4-.974-.582-1.414l-.189.043c-.175.435-.35.87-.549,1.377C296.464,168.981,296.823,168.981,297.334,168.981Z" transform="translate(-121.23 -43.474)" fill="#fff"/>
    <path id="Path_41" data-name="Path 41" d="M202.23,166.53h.87V170.1h2.28v.766H202.23Z" transform="translate(-72.651 -43.544)" fill="#fff"/>
    <path id="Path_42" data-name="Path 42" d="M253,170.068h2.171c.151.752.137.776-.516.781-.833,0-1.665,0-2.54,0v-4.31c.795-.232.88-.17.88.624C253,168.109,253,169.055,253,170.068Z" transform="translate(-98.94 -43.487)" fill="#fff"/>
    <path id="Path_43" data-name="Path 43" d="M195.777,170.82h-.795v-2.1c0-.544.038-1.093-.009-1.632-.052-.61.2-.766.8-.6Z" transform="translate(-68.823 -43.491)" fill="#fff"/>
    <path id="Path_44" data-name="Path 44" d="M287.82,166.53h.785v4.276c-.719.2-.785.151-.785-.539Z" transform="translate(-117.752 -43.544)" fill="#fff"/>
  </g>
</svg>
